<svg width="22" height="23" viewBox="0 0 22 23" fill="none" xmlns="http://www.w3.org/2000/svg">
<path d="M19.94 10.0625C19.7135 8.03462 18.8042 6.14404 17.3613 4.70119C15.9185 3.25835 14.0279 2.34901 12 2.1225V1.0625C12 0.5125 11.55 0.0625 11 0.0625C10.45 0.0625 10 0.5125 10 1.0625V2.1225C7.97212 2.34901 6.08154 3.25835 4.63869 4.70119C3.19585 6.14404 2.28651 8.03462 2.06 10.0625H1C0.45 10.0625 0 10.5125 0 11.0625C0 11.6125 0.45 12.0625 1 12.0625H2.06C2.28651 14.0904 3.19585 15.981 4.63869 17.4238C6.08154 18.8667 7.97212 19.776 10 20.0025V21.0625C10 21.6125 10.45 22.0625 11 22.0625C11.55 22.0625 12 21.6125 12 21.0625V20.0025C14.0279 19.776 15.9185 18.8667 17.3613 17.4238C18.8042 15.981 19.7135 14.0904 19.94 12.0625H21C21.55 12.0625 22 11.6125 22 11.0625C22 10.5125 21.55 10.0625 21 10.0625H19.94ZM11 18.0625C7.13 18.0625 4 14.9325 4 11.0625C4 7.1925 7.13 4.0625 11 4.0625C14.87 4.0625 18 7.1925 18 11.0625C18 14.9325 14.87 18.0625 11 18.0625Z" fill="#F2FEFF"/>
<circle cx="11" cy="11.0625" r="4" fill="#F2FEFF"/>
</svg>
