<svg width="20" height="18" viewBox="0 0 20 18" fill="none" xmlns="http://www.w3.org/2000/svg">
<path d="M7.8585 7.19462H7.8935L9.9995 9.02313L12.106 7.19413M12.106 7.19413H12.141M12.106 7.19413H14.1775V15.1941H15.3025V7.19462H17.3745V15.1926H18.4535V15.8756H19.25V17.6716H0.75V15.8756H1.546V15.1926H2.6245V7.19462L4.696 7.19413V15.1936H5.8205V7.19413H7.893V15.1936H12.1055L12.106 7.19413ZM7.8935 10.3191L9.9995 12.1186L12.106 10.3196M1.6215 4.92313H18.378V7.19413H1.6215V4.92313ZM17.318 4.92313V3.86813L10.031 0.328125L2.7445 3.86913V4.92362L17.318 4.92313Z" stroke="black" stroke-width="0.5" stroke-linecap="round" stroke-linejoin="round"/>
</svg>
