<svg width="14" height="10" viewBox="0 0 14 10" fill="none" xmlns="http://www.w3.org/2000/svg">
<path fill-rule="evenodd" clip-rule="evenodd" d="M1.20285 3.169L0.783851 6.94C0.723602 7.47807 0.854687 8.02017 1.15412 8.47126C1.45356 8.92236 1.90223 9.25365 2.42148 9.40705C2.94072 9.56045 3.49739 9.52617 3.99389 9.31021C4.49039 9.09426 4.89503 8.71042 5.13685 8.226L5.49985 7.5H8.49985L8.86285 8.226C9.10468 8.71042 9.50931 9.09426 10.0058 9.31021C10.5023 9.52617 11.059 9.56045 11.5782 9.40705C12.0975 9.25365 12.5461 8.92236 12.8456 8.47126C13.145 8.02017 13.2761 7.47807 13.2159 6.94L12.7959 3.169C12.7144 2.43546 12.3654 1.75768 11.8157 1.26528C11.2659 0.772875 10.5539 0.500414 9.81585 0.5H4.18585C3.44746 0.499922 2.73498 0.772162 2.18478 1.26461C1.63458 1.75706 1.28532 2.43512 1.20385 3.169H1.20285ZM4.37485 2.375C4.71985 2.375 4.99985 2.655 4.99985 3V3.542H5.54185C5.70761 3.542 5.86658 3.60785 5.98379 3.72506C6.101 3.84227 6.16685 4.00124 6.16685 4.167C6.16685 4.33276 6.101 4.49173 5.98379 4.60894C5.86658 4.72615 5.70761 4.792 5.54185 4.792H4.99985V5.333C4.99985 5.49876 4.934 5.65773 4.81679 5.77494C4.69958 5.89215 4.54061 5.958 4.37485 5.958C4.20909 5.958 4.05012 5.89215 3.93291 5.77494C3.8157 5.65773 3.74985 5.49876 3.74985 5.333V4.792H3.20785C3.04209 4.792 2.88312 4.72615 2.76591 4.60894C2.6487 4.49173 2.58285 4.33276 2.58285 4.167C2.58285 4.00124 2.6487 3.84227 2.76591 3.72506C2.88312 3.60785 3.04209 3.542 3.20785 3.542H3.74985V3C3.74985 2.655 4.02985 2.375 4.37485 2.375ZM9.26485 5.417C9.43061 5.417 9.58958 5.35115 9.70679 5.23394C9.824 5.11673 9.88985 4.95776 9.88985 4.792C9.88985 4.62624 9.824 4.46727 9.70679 4.35006C9.58958 4.23285 9.43061 4.167 9.26485 4.167C9.09909 4.167 8.94012 4.23285 8.82291 4.35006C8.7057 4.46727 8.63985 4.62624 8.63985 4.792C8.63985 4.95776 8.7057 5.11673 8.82291 5.23394C8.94012 5.35115 9.09909 5.417 9.26485 5.417ZM11.1409 3.242C11.1409 3.40776 11.075 3.56673 10.9578 3.68394C10.8406 3.80115 10.6816 3.867 10.5159 3.867C10.3501 3.867 10.1911 3.80115 10.0739 3.68394C9.9567 3.56673 9.89085 3.40776 9.89085 3.242C9.89085 3.07624 9.9567 2.91727 10.0739 2.80006C10.1911 2.68285 10.3501 2.617 10.5159 2.617C10.6816 2.617 10.8406 2.68285 10.9578 2.80006C11.075 2.91727 11.1409 3.07624 11.1409 3.242Z" fill="black"/>
</svg>
